<svg id="Layer_1" data-name="Layer 1" xmlns="http://www.w3.org/2000/svg" width="138.87" height="140" viewBox="0 0 138.87 140"><defs><style>.cls-1{fill:#fff;}.cls-1,.cls-2{stroke:#fff;stroke-miterlimit:10;}.cls-2{fill:none;stroke-width:6px;}</style></defs><path class="cls-1" d="M76.41,85.33a3.16,3.16,0,0,1-2.89-1.44V60.16A5.35,5.35,0,0,1,76.84,59c4.54,0,5.82,5.88,5.82,12.61C82.61,81.59,79.83,85.33,76.41,85.33Zm5.5-31.79a10.87,10.87,0,0,0-8.44,4l-.27-3.31H61L61,105.54H73.52V88.38a10.64,10.64,0,0,0,6.79,2.3c8.39,0,14.7-7.86,14.7-18.6C95,62.14,90.78,53.54,81.91,53.54Zm131.49-2.2h12.5V86.88H213.4Zm-3.32,6.57c0,4.12-2.35,7-6.2,7a5.4,5.4,0,0,1-5.77-5.35,7.75,7.75,0,0,1,1.23-3.95c-1.55-.86-6,1-7.53,6.09V86.82H179.3V51.28h12.29l.16,5.94c2.25-4.23,5.67-6.68,9.89-6.68C207.14,50.54,210.08,54,210.08,57.91Zm-48.31-6.57h12.51V86.88H161.77V79c-1.28,3.47-4.27,8.71-10.74,8.71-6.68,0-9.94-5.29-9.94-11V56.47c0-2.67-.75-4-1.71-4.44v-.69H153.6v21.8c0,5.4,2.4,5.77,3.84,5.77,2,0,3.48-1.71,4.33-4.16V51.34Zm174.6,24c0,7.16-6.41,12.24-15.55,12.24-4.81,0-9.41-2.4-12-2.4-1.87,0-2.35.53-2.35.53L306,75.87h1.13c5,6.68,8.49,9.56,13.68,9.56,3.36,0,6.2-1.65,6.2-4.54,0-3.1-2.78-3.85-6.79-4.81-10.85-2.78-13.9-7.48-13.9-13.84,0-7,6.15-11.81,13.79-11.81a21.66,21.66,0,0,1,6.95,1.18c1.18.37,4.49,1.81,6.73,1.65v9.51h-1.07c-4.22-6.19-7.91-10.26-12.55-10.26-2.94,0-4.6,1.82-4.6,4.17,0,2.89,2.72,3.69,7.59,5.08C331.93,64.54,336.37,67.91,336.37,75.33Zm-46.76-24h12.5V86.88h-12.5V79c-1.29,3.47-4.28,8.71-10.75,8.71-6.68,0-9.94-5.29-9.94-11V56.47c0-2.67-.74-4-1.71-4.44v-.69h14.27v21.8c0,5.4,2.41,5.77,3.85,5.77,2,0,3.47-1.71,4.33-4.16V51.34Zm-42.33,34c-3.63,0-4.92-4.92-4.92-16.35s1.34-16.36,4.92-16.36S252.2,57.59,252.2,69,250.86,85.38,247.28,85.38Zm0-34.84c-11.33,0-17.85,8.28-17.85,18.49S236,87.52,247.28,87.52s17.8-8.29,17.8-18.49S258.56,50.54,247.28,50.54ZM98.59,54.34h12.5V89.88H98.59ZM213.5,41.66a6.17,6.17,0,0,1,12.3,0,6.17,6.17,0,0,1-12.3,0Zm-114.81,3a6.17,6.17,0,1,1,6.15,5.67A5.89,5.89,0,0,1,98.69,44.66ZM37.77,72.72C36.65,65,38.89,56.58,42,56.58s4.49,6.36,4.54,13.74Zm4.06-19.13c-11.38,0-18.12,8.66-18.12,18.54a18.73,18.73,0,0,0,6.63,14.81,16.41,16.41,0,0,0,11,3.9A16.13,16.13,0,0,0,57.38,78.55h-.05a.19.19,0,0,1,.05-.16l-.8-.27s-3.9,5.13-9.73,5.13a8.8,8.8,0,0,1-5-1.66,10,10,0,0,1-3.37-5.71l19.62-5.67v-.16C57.6,60.43,50.81,53.59,41.83,53.59Z"/><circle class="cls-2" cx="69.5" cy="70.5" r="66"/></svg>